<svg height="510" width="720" xmlns="http://www.w3.org/2000/svg">
<rect height="510" fill="#555" width="720"></rect>
<text fill="#7f7" font-family="Courier New" font-size="12" xml:space="preserve">
<tspan x="10" y="26">2 megabytes installed</tspan>
<tspan x="10" y="42"></tspan>
<tspan x="10" y="58">node_modules</tspan>
<tspan x="10" y="74">└─┬ hapi@16.1.1 </tspan>
<tspan x="10" y="90">  ├── accept@2.1.3 </tspan>
<tspan x="10" y="106">  ├── ammo@2.0.3 </tspan>
<tspan x="10" y="122">  ├── b64@3.0.2 </tspan>
<tspan x="10" y="138">  ├── boom@4.2.0 </tspan>
<tspan x="10" y="154">  ├── call@4.0.0 </tspan>
<tspan x="10" y="170">  ├── catbox@7.1.3 </tspan>
<tspan x="10" y="186">  ├── catbox-memory@2.0.4 </tspan>
<tspan x="10" y="202">  ├── content@3.0.3 </tspan>
<tspan x="10" y="218">  ├── cryptiles@3.1.1 </tspan>
<tspan x="10" y="234">  ├── heavy@4.0.3 </tspan>
<tspan x="10" y="250">  ├── hoek@4.1.0 </tspan>
<tspan x="10" y="266">  ├── iron@4.0.4 </tspan>
<tspan x="10" y="282">  ├── isemail@2.2.1 </tspan>
<tspan x="10" y="298">  ├── items@2.1.1 </tspan>
<tspan x="10" y="314">  ├── joi@10.1.0 </tspan>
<tspan x="10" y="330">  ├── mime-db@1.25.0 </tspan>
<tspan x="10" y="346">  ├── mimos@3.0.3 </tspan>
<tspan x="10" y="362">  ├── nigel@2.0.2 </tspan>
<tspan x="10" y="378">  ├── pez@2.1.4 </tspan>
<tspan x="10" y="394">  ├── podium@1.2.5 </tspan>
<tspan x="10" y="410">  ├── shot@3.4.0 </tspan>
<tspan x="10" y="426">  ├── statehood@5.0.1 </tspan>
<tspan x="10" y="442">  ├─┬ subtext@4.3.0 </tspan>
<tspan x="10" y="458">  │ └── wreck@10.0.0 </tspan>
<tspan x="10" y="474">  ├── topo@2.0.2 </tspan>
<tspan x="10" y="490">  └── vise@2.0.2</tspan>
</text>
</svg>
